<?xml version="1.0" encoding="UTF-8"?>
<svg width="230" height="75" version="1.1" xmlns="http://www.w3.org/2000/svg">
 <path d="m184.81 25.331v40.054h35.037v-55.771l-16.99 0.10039-36.55 5.7042v-5.8046l-16.99 0.10039-36.826 5.7555c-0.58001-3.2704-3.4288-5.7801-6.8553-5.7801h-88.528c-3.8326 0-6.9579 3.1432-6.9579 6.9958v20.332c0 3.8526 4.6133 6.9959 8.4437 6.9959h61.002c5.6217 0 5.0171 6.9958 0 6.9958h-69.445v14.322h95.484c3.8303 0 6.9579-3.1432 6.9579-6.9958v-30.573l18.679-2.4584v40.054h35.037v-37.618l18.502-2.4338zm-148.92-1.9274h43.836c2.1438 0 3.8816 1.749 3.8816 3.9039 0 2.155-1.7646 3.9039-3.8816 3.9039h-43.836c-2.1416 0-3.8816-1.749-3.8816-3.9039 0-2.155 1.7646-3.9039 3.8816-3.9039"/>
</svg>
